<svg xmlns:xlink="http://www.w3.org/1999/xlink"  xmlns="http://www.w3.org/2000/svg" viewBox="0 0 100 100"><path d="M95.84,62.58c-8,0-16,0-24,0-1.08,0-2.16,0-3.24,0-4.71.3-4.71.3-5.25,5-1.08,9.51-8.43,15-16.63,12.13-6.19-2.16-8.53-7.44-9.1-13.37-.27-2.9-1.39-3.71-3.88-3.72-8.85,0-17.7,0-26.55-.17-1.45,0-4.07.45-4.14-.89-.09-1.66,2.8-1,4.32-1.09,4.09-.19,8.2-.06,12.3-.06v.08c4.75,0,9.5-.15,14.24,0,4.45.18,5,.95,5.65,5.22.83,5.27,2.36,10.33,8.22,12.06C54.94,80,60.48,75.37,61.4,66.84,62,61.39,62.54,60.69,68,60.6c9.28-.15,18.57-.08,27.85-.09.85,0,2-.16,2.11.94C98.09,63,96.7,62.58,95.84,62.58Z"></path><path d="M51.51,47.89c.27-8.58,2.82-16.76,4.19-25.14.15-1,1.12-2.38-.41-2.77s-1.43,1.24-1.75,2.2a198.9,198.9,0,0,0-7.43,28.06c-1,5.59-2.11,11.25-.85,17,.75,3.43,2.45,5.07,5.3,5a5.13,5.13,0,0,0,5.12-4.83,10.46,10.46,0,0,0-1.51-7.14C51.69,56.45,51.38,52.28,51.51,47.89Zm2.21,18.36c-.11,2-.74,3.69-3,4s-3-1.46-3.38-3.19a36.28,36.28,0,0,1,0-11c.3-2.66.89-5.28,1.35-7.92a28.57,28.57,0,0,0,4.11,14.08A6.92,6.92,0,0,1,53.72,66.25Z"></path></svg>