<svg xmlns:xlink="http://www.w3.org/1999/xlink"  xmlns="http://www.w3.org/2000/svg" viewBox="0 0 100 100"><path d="M90,77.8V60.45A9.44,9.44,0,1,0,79.19,50H58.93A9.44,9.44,0,0,0,51,41.8V21.45a9.44,9.44,0,1,0-3,0V41.82A9.45,9.45,0,0,0,40.19,50H19.93a9.43,9.43,0,1,0-.12,3h20.5a9.44,9.44,0,0,0,4.28,6.14l-8,18.76a9.33,9.33,0,0,0-2-.21A9.45,9.45,0,1,0,39.35,79l8-18.7a9.33,9.33,0,0,0,2.2.26A9.44,9.44,0,0,0,58.81,53h20.5A9.45,9.45,0,0,0,87,60.43V77.82a9.44,9.44,0,1,0,3,0ZM10.56,57.56A6.44,6.44,0,1,1,17,51.12,6.45,6.45,0,0,1,10.56,57.56ZM41,87.12a6.44,6.44,0,1,1-6.44-6.43A6.45,6.45,0,0,1,41,87.12Zm2.12-75a6.44,6.44,0,1,1,6.44,6.44A6.45,6.45,0,0,1,43.12,12.12Zm6.44,45.44A6.44,6.44,0,1,1,56,51.12,6.45,6.45,0,0,1,49.56,57.56Zm32.56-6.44a6.44,6.44,0,1,1,6.44,6.44A6.45,6.45,0,0,1,82.12,51.12Zm6.44,42.44A6.44,6.44,0,1,1,95,87.12,6.45,6.45,0,0,1,88.56,93.56Z"></path></svg>