<svg xmlns:xlink="http://www.w3.org/1999/xlink"  xmlns="http://www.w3.org/2000/svg" viewBox="0 0 100 100"><path d="M92.53,9,91,7.47a18.65,18.65,0,0,0-26.39,0L8.47,63.6A18.65,18.65,0,0,0,8.47,90L10,91.53a18.65,18.65,0,0,0,26.39,0L92.53,35.4A18.65,18.65,0,0,0,92.53,9ZM34.22,89.35a15.57,15.57,0,0,1-22,0L10.65,87.8a15.57,15.57,0,0,1,0-22l27-27L61.19,62.37ZM90.35,33.22l-27,27L39.81,36.63l27-27a15.57,15.57,0,0,1,22,0l1.55,1.55a15.57,15.57,0,0,1,0,22Z"></path><path d="M68,44.6a5.4,5.4,0,0,1-3.82-9.22l.13-.11A71.8,71.8,0,0,0,81.58,18l.12-.14a5.4,5.4,0,1,1,7.64,7.64l-.11.09A90.1,90.1,0,0,0,71.92,42.91l-.09.11A5.42,5.42,0,0,1,68,44.6Zm-2.42-7.7a3.34,3.34,0,0,0,4.73,4.71A92.26,92.26,0,0,1,87.92,24a3.34,3.34,0,0,0-4.7-4.74A74.33,74.33,0,0,1,65.59,36.9Z"></path><path d="M19.6,74.47a5.4,5.4,0,0,1-3.82-9.22l.13-.11A72,72,0,0,0,33.18,47.88l.11-.14a5.4,5.4,0,0,1,7.64,7.64l-.11.09A90.38,90.38,0,0,0,23.51,72.78l-.09.11A5.37,5.37,0,0,1,19.6,74.47Zm-2.42-7.71a3.36,3.36,0,0,0,.06,4.67,3.43,3.43,0,0,0,4.68,0,91.4,91.4,0,0,1,17.6-17.6,3.34,3.34,0,0,0-4.71-4.74A73.92,73.92,0,0,1,17.18,66.76Z"></path><path d="M52.56,41.78a5.93,5.93,0,1,1,5.92-5.93A5.93,5.93,0,0,1,52.56,41.78Zm0-9.79a3.87,3.87,0,1,0,3.86,3.86A3.86,3.86,0,0,0,52.56,32Z"></path><path d="M76.25,16.29a4.12,4.12,0,1,1,4.12-4.12A4.13,4.13,0,0,1,76.25,16.29Zm0-6.18a2.06,2.06,0,1,0,2.06,2.06A2.06,2.06,0,0,0,76.25,10.11Z"></path><path d="M34,81.17A5.15,5.15,0,1,1,39.17,76,5.16,5.16,0,0,1,34,81.17Zm0-8.24A3.09,3.09,0,1,0,37.11,76,3.1,3.1,0,0,0,34,72.93Z"></path><path d="M62.86,54.65A4.12,4.12,0,1,1,67,50.53,4.13,4.13,0,0,1,62.86,54.65Zm0-6.18a2.06,2.06,0,1,0,2.06,2.06A2.06,2.06,0,0,0,62.86,48.47Z"></path><polygon points="66.38 23.75 69.77 27.14 68.31 28.6 64.92 25.21 61.53 28.6 60.07 27.14 63.46 23.75 60.07 20.36 61.53 18.9 64.92 22.29 68.31 18.9 69.77 20.36 66.38 23.75"></polygon><polygon points="48.87 62.89 52.26 66.28 50.8 67.74 47.41 64.35 44.02 67.74 42.56 66.28 45.95 62.89 42.56 59.5 44.02 58.04 47.41 61.43 50.8 58.04 52.26 59.5 48.87 62.89"></polygon><polygon points="21.07 82.46 24.45 85.85 22.99 87.31 19.6 83.92 16.21 87.31 14.75 85.85 18.14 82.46 14.75 79.07 16.21 77.61 19.6 81 22.99 77.61 24.45 79.07 21.07 82.46"></polygon></svg>